<svg xmlns="http://www.w3.org/2000/svg" viewBox="0 0 100 100">
    <path d="M86.064 61.652L65.883 50l20.182-11.652A7.94 7.94 0 0 0 88.971 27.5a7.942 7.942 0 0 0-10.848-2.907L57.941 36.246V12.941a7.941 7.941 0 0 0-15.882 0v23.304L21.877 24.593A7.94 7.94 0 0 0 11.029 27.5a7.94 7.94 0 0 0 2.907 10.848L34.118 50 13.936 61.652a7.942 7.942 0 0 0 7.94 13.755L42.06 63.754v23.305a7.94 7.94 0 1 0 15.881 0V63.754l20.182 11.652a7.939 7.939 0 0 0 10.848-2.907 7.94 7.94 0 0 0-2.907-10.847z" fill="currentColor"/>
</svg>