<svg xmlns="http://www.w3.org/2000/svg" xmlns:xlink="http://www.w3.org/1999/xlink" version="1.1" x="0px" y="0px" viewBox="0 0 100 100" enable-background="new 0 0 100 100" xml:space="preserve"><path d="M86.064,61.652L65.883,50l20.182-11.652c3.798-2.192,5.1-7.049,2.906-10.848c-2.192-3.799-7.051-5.099-10.848-2.907  L57.941,36.246V12.941C57.941,8.556,54.387,5,50,5c-4.386,0-7.941,3.556-7.941,7.941v23.304L21.877,24.593  c-3.799-2.193-8.656-0.892-10.848,2.907c-2.193,3.798-0.892,8.655,2.907,10.848L34.118,50L13.936,61.652  c-3.798,2.193-5.1,7.05-2.907,10.848c1.471,2.548,4.14,3.972,6.884,3.972c1.348,0,2.713-0.344,3.963-1.065L42.06,63.754v23.305  C42.06,91.445,45.615,95,50,95c4.386,0,7.941-3.555,7.941-7.941V63.754l20.182,11.652c1.251,0.722,2.616,1.065,3.963,1.065  c2.744,0,5.414-1.424,6.885-3.972C91.164,68.702,89.862,63.846,86.064,61.652z"></path></svg>