<?xml version="1.0" standalone="no"?>
<!DOCTYPE svg PUBLIC "-//W3C//DTD SVG 20010904//EN"
 "http://www.w3.org/TR/2001/REC-SVG-20010904/DTD/svg10.dtd">
<svg version="1.0" xmlns="http://www.w3.org/2000/svg"
 width="2048.000000pt" height="2048.000000pt" viewBox="0 0 2048.000000 2048.000000"
 preserveAspectRatio="xMidYMid meet">
<metadata>
Created by potrace 1.11, written by Peter Selinger 2001-2013
</metadata>
<g transform="translate(0.000000,2048.000000) scale(0.100000,-0.100000)"
fill="#000000" stroke="none">
<path d="M0 14063 l0 -6418 2275 2275 2275 2275 -799 800 -799 800 -41 85
c-56 116 -74 194 -74 315 0 121 18 200 75 315 59 120 178 239 298 298 115 57
194 75 315 75 121 0 199 -18 315 -74 l85 -41 2026 -2027 2027 -2026 41 -85
c56 -116 74 -194 74 -315 0 -121 -18 -200 -75 -315 -59 -120 -178 -239 -298
-298 -115 -57 -194 -75 -315 -75 -121 0 -199 18 -315 74 l-85 41 -740 739
-740 739 -2763 -2763 -2762 -2762 0 -2848 0 -2847 10240 0 10240 0 0 10240 0
10240 -2847 0 -2848 0 -3082 -3082 -3083 -3083 859 -860 859 -860 41 -85 c56
-116 74 -194 74 -315 0 -121 -18 -200 -75 -315 -59 -120 -178 -239 -298 -298
-115 -57 -194 -75 -315 -75 -121 0 -199 18 -315 74 l-85 41 -2026 2027 -2027
2026 -41 85 c-56 116 -74 194 -74 315 0 121 18 200 75 315 59 120 178 239 298
298 115 57 194 75 315 75 121 0 199 -18 315 -74 85 -41 85 -42 765 -720 l680
-679 2595 2595 2595 2595 -6418 0 -6417 0 0 -6417z m12385 -3393 c180 -15 312
-37 495 -81 157 -38 419 -119 449 -138 11 -7 -12 -112 -119 -552 -72 -299
-133 -549 -135 -555 -2 -8 -32 0 -87 22 -180 72 -425 120 -663 131 -313 13
-547 -55 -706 -204 -168 -159 -227 -342 -236 -730 l-6 -223 862 0 861 0 0
-580 0 -580 -860 0 -860 0 0 -1875 0 -1875 -695 0 -695 0 3 2728 c3 2993 -1
2773 62 3056 106 474 372 883 730 1121 299 199 652 307 1115 338 109 8 375 6
485 -3z m4061 -2210 c285 -22 578 -82 836 -171 185 -63 233 -85 231 -105 -3
-32 -276 -1079 -283 -1087 -4 -5 -63 9 -131 31 -291 95 -477 130 -739 138
-284 10 -493 -27 -685 -121 -315 -154 -526 -482 -601 -931 -26 -151 -26 -520
-1 -682 53 -338 166 -585 345 -753 188 -176 448 -262 832 -276 342 -12 728 44
1033 148 65 23 120 39 121 37 1 -1 44 -248 95 -548 51 -300 95 -555 98 -566 4
-19 -5 -26 -74 -52 -549 -210 -1323 -277 -1956 -171 -601 101 -1126 405 -1453
842 -300 401 -460 925 -481 1577 -21 670 154 1269 511 1748 101 135 320 355
454 455 377 282 817 447 1297 486 147 12 403 12 551 1z"/>
</g>
</svg>
